<?xml version="1.0" standalone="no"?>
<!DOCTYPE svg PUBLIC "-//W3C//DTD SVG 1.1//EN" "http://www.w3.org/Graphics/SVG/1.1/DTD/svg11.dtd" >
<svg xmlns="http://www.w3.org/2000/svg">
<metadata>Generated by IcoMoon</metadata>
<defs>
<font id="icomoon" horiz-adv-x="1024">
<font-face units-per-em="1024" ascent="960" descent="-64" />
<missing-glyph horiz-adv-x="1024" />
<glyph unicode="&#x20;" horiz-adv-x="512" d="" />
<glyph unicode="&#xe900;" glyph-name="close" d="M1024 856.917l-103.083 103.083-408.917-408.917-408.917 408.917-103.083-103.083 408.917-408.917-408.917-408.917 103.083-103.083 408.917 408.917 408.917-408.917 103.083 103.083-408.917 408.917z" />
<glyph unicode="&#xe901;" glyph-name="globe" d="M716.8 243.2h-51.2v153.6c0 28.444-22.756 51.2-51.2 51.2h-307.2v102.4h102.4c28.444 0 51.2 22.756 51.2 51.2v102.4h102.4c56.32 0 102.4 46.080 102.4 102.4v21.049c150.187-60.302 256-207.644 256-379.449 0-106.382-40.96-203.093-107.52-275.911-13.084 40.96-51.769 71.111-97.28 71.111zM460.8 41.813c-201.956 25.031-358.4 197.404-358.4 406.187 0 31.858 3.982 62.578 10.809 91.591l245.191-245.191v-51.2c0-56.32 46.080-102.4 102.4-102.4zM0 448c0-135.964 54.044-266.24 150.187-361.813 95.573-96.142 225.849-150.187 361.813-150.187s266.24 54.044 361.813 150.187c96.142 95.573 150.187 225.849 150.187 361.813s-54.044 266.24-150.187 361.813c-95.573 96.142-225.849 150.187-361.813 150.187-282.738 0-512-229.262-512-512z" />
<glyph unicode="&#xe902;" glyph-name="heart" d="M512 0.233l-74.473 68.887c-263.447 243.898-437.527 404.945-437.527 603.229 0 161.047 123.811 287.651 282.065 287.651 88.436 0 174.080-42.822 229.935-108.916 55.855 66.095 141.498 108.916 229.935 108.916 158.255 0 282.065-126.604 282.065-287.651 0-198.284-174.080-359.331-437.527-604.16z" />
<glyph unicode="&#xe903;" glyph-name="image" d="M1024 846.336c0 62.464-51.2 113.664-113.664 113.664h-796.672c-62.464 0-113.664-51.2-113.664-113.664v-796.672c0-62.464 51.2-113.664 113.664-113.664h796.672c62.464 0 113.664 51.2 113.664 113.664zM454.997 191.317l199.339 256.683 256-341.333h-796.672l199.339 256z" />
<glyph unicode="&#xe904;" glyph-name="library" horiz-adv-x="1207" d="M109.714 626.834v110.811h-109.714v-110.811zM109.714 404.48v111.177h-109.714v-111.177zM109.714 848.823v111.177c-60.343 0-109.714-50.103-109.714-111.177zM548.571-39.863v111.177h-109.714v-111.177zM109.714 182.126v111.177h-109.714v-111.177zM109.714 71.314h-109.714c0-61.44 49.371-111.177 109.714-111.177zM658.286 960v-333.166h548.571v221.989c0 61.074-49.371 111.177-109.714 111.177zM1206.857 182.126v111.177h-109.714v-111.177zM548.571 848.823v111.177h-109.714v-111.177zM329.143-39.863v111.177h-109.714v-111.177zM329.143 848.823v111.177h-109.714v-111.177zM1206.857 71.314h-109.714v-111.177c60.343 0 109.714 49.737 109.714 111.177zM1206.857 404.48v111.177h-109.714v-111.177zM768-39.863v111.177h-109.714v-111.177zM877.714-39.863v111.177h109.714v-111.177z" />
<glyph unicode="&#xe905;" glyph-name="note" horiz-adv-x="922" d="M204.8 550.4h512v102.4h-512zM204.8 345.6h512v102.4h-512zM204.8 140.8h358.4v102.4h-358.4zM460.8 857.6c-28.16 0-51.2-23.040-51.2-51.2s23.040-51.2 51.2-51.2c28.16 0 51.2 23.040 51.2 51.2s-23.040 51.2-51.2 51.2zM819.2 857.6c56.32 0 102.4-46.080 102.4-102.4v-716.8c0-56.32-46.080-102.4-102.4-102.4h-716.8c-56.32 0-102.4 46.080-102.4 102.4v716.8c0 56.32 46.080 102.4 102.4 102.4h214.016c21.504 59.392 77.824 102.4 144.384 102.4s122.88-43.008 144.384-102.4z" />
<glyph unicode="&#xe906;" glyph-name="pen" d="M0-64h212.992l629.419 629.419-212.992 212.992-629.419-629.419zM1007.616 729.941l-104.448-103.765-212.992 212.992 103.765 104.448c22.528 21.845 58.027 21.845 80.555 0l133.12-133.12c21.845-22.528 21.845-58.027 0-80.555z" />
<glyph unicode="&#xe907;" glyph-name="pencil" d="M0 192v-256h256l768 768-256 256z" />
<glyph unicode="&#xe908;" glyph-name="profile" horiz-adv-x="922" d="M768 38.4h-614.4v71.68c0 102.4 204.8 158.72 307.2 158.72s307.2-56.32 307.2-158.72zM614.4 499.2c0-84.992-68.608-153.6-153.6-153.6s-153.6 68.608-153.6 153.6c0 84.992 68.608 153.6 153.6 153.6s153.6-68.608 153.6-153.6zM512 806.4c0-28.16-23.040-51.2-51.2-51.2s-51.2 23.040-51.2 51.2c0 28.16 23.040 51.2 51.2 51.2s51.2-23.040 51.2-51.2zM605.184 857.6c-21.504 59.392-77.824 102.4-144.384 102.4s-122.88-43.008-144.384-102.4h-214.016c-56.32 0-102.4-46.080-102.4-102.4v-716.8c0-56.32 46.080-102.4 102.4-102.4h716.8c56.32 0 102.4 46.080 102.4 102.4v716.8c0 56.32-46.080 102.4-102.4 102.4z" />
<glyph unicode="&#xe909;" glyph-name="setting" horiz-adv-x="1081" d="M384.569 448c0 98.987 83.058 179.2 184.32 179.2 101.831 0 184.32-80.213 184.32-179.2s-82.489-179.2-184.32-179.2c-101.262 0-184.32 80.213-184.32 179.2zM960.284 397.938c1.707 16.498 3.413 32.427 3.413 50.062s-1.707 33.564-3.413 50.062l110.933 84.764c9.671 7.396 12.516 21.049 6.258 32.427l-105.244 177.493c-6.258 11.378-20.48 15.36-31.858 11.378l-131.413-51.2c-27.307 20.48-56.889 36.978-88.747 50.062l-19.911 135.396c-1.707 12.516-13.084 21.618-26.169 21.618h-210.489c-13.084 0-23.893-9.102-25.6-21.618l-19.911-135.396c-32.427-13.084-62.009-30.151-89.316-50.062l-130.844 51.2c-11.947 4.551-25.6 0-32.427-11.378l-105.244-177.493c-6.827-11.378-3.413-25.031 6.827-32.427l110.933-84.764c-2.276-16.498-3.982-32.996-3.982-50.062s1.707-33.564 3.982-50.062l-110.933-84.764c-10.24-7.396-13.084-21.618-6.827-32.427l105.244-177.493c6.827-11.378 21.049-15.36 32.427-11.378l130.844 51.2c27.307-20.48 56.889-36.978 89.316-50.062l19.911-135.396c1.707-12.516 12.516-21.618 25.6-21.618h210.489c13.084 0 24.462 9.102 26.169 21.618l19.911 135.396c31.858 13.084 61.44 30.151 88.747 50.062l131.413-51.2c11.947-4.551 25.6 0 31.858 11.378l105.244 177.493c6.258 10.809 3.413 25.031-6.258 32.427z" />
<glyph unicode="&#xe90a;" glyph-name="share" horiz-adv-x="1161" d="M709.291 960l451.243-477.867-451.243-477.867v279.893c-322.219 0-548.181-109.227-709.291-348.16 64.171 341.333 258.048 682.667 709.291 750.933v273.067z" />
<glyph unicode="&#xe90b;" glyph-name="star-box" horiz-adv-x="1280" d="M1280 576v256c0 70.4-57.6 128-128 128h-1024c-70.4 0-127.36-57.6-127.36-128v-256c70.4 0 127.36-57.6 127.36-128s-56.96-128-128-128v-256c0-70.4 57.6-128 128-128h1024c70.4 0 128 57.6 128 128v256c-70.4 0-128 57.6-128 128s57.6 128 128 128zM640 288l-229.12-147.2 69.12 263.68-210.56 172.16 271.36 16 99.2 252.16 98.56-252.8 271.36-16-210.56-172.16 69.76-263.040z" />
<glyph unicode="&#xe90c;" glyph-name="video" d="M0 448c0-282.56 229.44-512 512-512s512 229.44 512 512c0 282.56-229.44 512-512 512s-512-229.44-512-512zM409.6 678.4l307.2-230.4-307.2-230.4z" />
<glyph unicode="&#xe90d;" glyph-name="bar-chart" d="M665.6 396.8h102.4v-204.8h-102.4zM460.8 755.2h102.4v-563.2h-102.4zM204.8 550.4h102.4v-409.6h-102.4zM113.778 960c-62.578 0-113.778-51.2-113.778-113.778v-796.444c0-62.578 51.2-113.778 113.778-113.778h796.444c62.578 0 113.778 51.2 113.778 113.778v796.444c0 62.578-51.2 113.778-113.778 113.778z" />
<glyph unicode="&#xe90e;" glyph-name="calendar" horiz-adv-x="922" d="M102.4 38.4h716.8v563.2h-716.8zM819.2 857.6c56.32 0 102.4-46.080 102.4-102.4v-716.8c0-56.32-46.080-102.4-102.4-102.4h-716.8c-56.832 0-102.4 46.080-102.4 102.4l0.512 716.8c0 56.32 45.056 102.4 101.888 102.4h51.2v102.4h102.4v-102.4h409.6v102.4h102.4v-102.4zM614.4 499.2h102.4v-102.4h-102.4zM409.6 499.2h102.4v-102.4h-102.4zM204.8 396.8h102.4v102.4h-102.4z" />
<glyph unicode="&#xe90f;" glyph-name="check" horiz-adv-x="1317" d="M1143.954 960l-696.32-684.617-275.017 270.629-172.617-169.691 447.634-440.32 868.937 854.309z" />
<glyph unicode="&#xe910;" glyph-name="check-form" horiz-adv-x="870" d="M45.489 957.195c-18.837-5.010-36.471-22.644-41.481-41.281-1.403-5.010-1.804-160.113-1.603-471.12l0.601-463.706 4.609-8.416c7.014-13.226 15.831-22.043 28.055-28.055l11.422-5.611 401.785-1.002v96.188h-342.469l-4.008 5.21-4.208 5.411v407.396c0 400.783 0 407.396 3.807 409.6 2.605 1.403 105.807 2.004 319.624 2.004 284.155 0 315.817-0.401 318.622-3.206s3.206-30.459 3.206-275.538v-272.332h96.188v298.182c0 258.906-0.401 299.585-3.006 308.402-4.208 14.027-15.831 26.652-31.461 33.866l-12.625 5.811-368.72 0.401c-297.782 0.2-370.524-0.2-378.339-2.204zM173.138 763.616c-8.416-5.411-11.823-14.228-11.823-30.059 0-16.031 3.407-24.849 12.023-30.059 6.413-4.008 8.817-4.008 249.287-3.607l242.674 0.601 6.413 6.613c6.613 6.413 6.613 6.613 6.613 26.452s0 20.039-6.613 26.452l-6.413 6.613-243.075 0.401c-240.67 0.601-242.874 0.601-249.086-3.407zM177.146 645.386c-15.631-6.212-21.843-34.868-11.823-54.306 6.613-12.625-8.617-11.823 256.701-11.823h241.672l15.631 15.631v16.632c0 13.226-0.802 18.236-4.008 23.245-8.216 13.426 9.218 12.625-254.898 12.424-131.457 0-240.87-0.802-243.275-1.804zM174.942 523.147c-9.018-5.411-12.424-11.623-13.827-25.249-1.804-16.632 1.603-27.454 10.621-34.267l7.214-5.611h239.668c262.513 0 248.886-0.601 256.701 12.023 5.811 9.218 5.611 35.269 0 44.687-8.016 13.025 6.212 12.424-255.9 12.424-232.454 0-238.265-0.2-244.477-4.008zM176.545 403.313c-12.224-6.012-15.23-12.424-15.23-31.461s3.006-25.45 15.23-31.461c6.212-3.407 18.236-3.607 161.115-3.607 172.136 0 163.119-0.802 172.737 13.827 6.613 9.819 6.613 32.664 0 42.483-9.619 14.629-0.601 13.827-172.737 13.827-142.879 0-154.903-0.2-161.115-3.607zM821.605 251.216c-1.603-0.401-35.469-35.87-75.147-78.754-62.723-67.732-72.542-77.752-75.548-75.548-1.804 1.403-16.031 14.428-31.461 29.057-21.843 20.64-29.257 26.452-33.465 26.452s-8.617-3.206-18.236-13.426c-7.214-7.615-15.23-17.033-18.035-21.041-4.609-6.613-4.809-8.216-2.605-13.025 2.805-6.413 101.598-92.781 109.414-95.787 3.206-1.202 6.212-1.202 8.416 0.2 4.208 2.605 170.733 181.354 178.749 191.975 3.407 4.208 6.012 9.619 6.012 11.823 0 4.208-8.216 12.825-28.255 29.458-11.623 9.619-13.426 10.42-19.839 8.617zM529.033 248.009c-3.807-1.403-8.817-5.411-11.422-9.218l-4.609-6.813v-277.342l4.409-5.611c8.817-11.222 5.611-11.022 156.305-11.022 85.367 0 141.677 0.802 146.085 2.004 3.807 1.002 9.619 4.809 13.025 8.216l5.811 6.012 0.601 79.155c0.2 43.485-0.2 78.954-1.002 78.954s-8.016-6.613-16.031-14.428l-14.629-14.428v-53.705c0-45.89-0.401-53.905-3.206-56.51-2.805-2.805-17.033-3.206-128.050-3.206-68.734 0-126.247 0.601-128.050 1.202-2.805 1.202-3.206 13.827-3.206 122.239 0 117.429 0.2 121.036 3.807 123.040 2.605 1.202 35.068 2.004 91.779 2.004h87.972l14.428 14.629c7.815 8.016 14.428 15.23 14.428 16.031 0 2.605-220.631 1.403-228.446-1.202z" />
<glyph unicode="&#xe911;" glyph-name="plus" d="M768 396.8h-204.8v-204.8h-102.4v204.8h-204.8v102.4h204.8v204.8h102.4v-204.8h204.8v-102.4zM0 448c0-282.88 229.12-512 512-512s512 229.12 512 512-229.12 512-512 512-512-229.12-512-512z" />
<glyph unicode="&#xe912;" glyph-name="arrow-down" horiz-adv-x="1536" d="M768 2.56l768 766.72-190.72 190.72-577.28-576-577.28 576-190.72-190.72z" />
<glyph unicode="&#xe913;" glyph-name="facebook" d="M967.68 960h-911.36c-30.72 0-56.32-25.6-56.32-56.32v-911.36c0-30.72 25.6-56.32 56.32-56.32h490.88v396.8h-133.76v154.24h133.76v113.92c0 132.48 80.64 204.16 198.4 204.16 56.32 0 104.96-3.84 119.68-5.76v-138.24h-81.92c-64.64 0-76.8-30.72-76.8-75.52v-98.56h152.96l-19.84-154.24h-133.12v-396.8h261.12c30.72 0 56.32 25.6 56.32 56.32v911.36c0 30.72-25.6 56.32-56.32 56.32z" />
<glyph unicode="&#xe914;" glyph-name="warning" d="M0 448c0-282.624 229.376-512 512-512s512 229.376 512 512c0 282.624-229.376 512-512 512s-512-229.376-512-512zM460.8 192v307.2h102.4v-307.2zM460.8 601.6v102.4h102.4v-102.4z" />
<glyph unicode="&#xe915;" glyph-name="more-button" horiz-adv-x="228" d="M0 49.778c0-62.578 51.2-113.778 113.778-113.778s113.778 51.2 113.778 113.778c0 62.578-51.2 113.778-113.778 113.778s-113.778-51.2-113.778-113.778zM0 448c0-62.578 51.2-113.778 113.778-113.778s113.778 51.2 113.778 113.778c0 62.578-51.2 113.778-113.778 113.778s-113.778-51.2-113.778-113.778zM113.778 732.444c-62.578 0-113.778 51.2-113.778 113.778s51.2 113.778 113.778 113.778c62.578 0 113.778-51.2 113.778-113.778s-51.2-113.778-113.778-113.778z" />
<glyph unicode="&#xe916;" glyph-name="sort" horiz-adv-x="878" d="M235.52 960l-235.52-226.743h177.006v-399.36h117.76v399.36h177.006zM648.046 562.103v-399.36h177.006l-235.52-226.743-236.251 226.743h177.006v399.36z" />
<glyph unicode="&#xe917;" glyph-name="user" horiz-adv-x="1621" d="M1105.067 521.387c-122.027 0-221.013 98.133-221.013 219.307s98.987 219.307 221.013 219.307c122.88 0 221.013-98.133 221.013-219.307s-98.133-219.307-221.013-219.307zM516.267 521.387c-122.88 0-221.867 98.133-221.867 219.307s98.987 219.307 221.867 219.307c122.027 0 220.16-98.133 220.16-219.307s-98.133-219.307-220.16-219.307zM516.267 374.613c171.52 0 515.413-85.333 515.413-256v-182.613h-1031.68v182.613c0 170.667 343.893 256 516.267 256zM1034.24 371.2c85.333-61.44 145.067-144.213 145.067-252.587v-182.613h442.027v182.613c0 170.667-343.893 256-516.267 256-21.333 0-45.227-0.853-70.827-3.413z" />
<glyph unicode="&#xe918;" glyph-name="pause" horiz-adv-x="768" d="M0-64v1024h256v-1024zM512-64v1024h256v-1024z" />
<glyph unicode="&#xe919;" glyph-name="arrow-right" horiz-adv-x="1536" d="M480.32 448l495.163-496 123.163 123.163-372 372.837 372 372.837-123.163 123.163z" />
<glyph unicode="&#xe91a;" glyph-name="arrow-left" horiz-adv-x="1536" d="M1055.68 448l-495.163 496-123.163-123.163 372-372.837-372-372.837 123.163-123.163z" />
<glyph unicode="&#xe91b;" glyph-name="single-user" d="M1012.297-52.297h-1012.297v117.029c0 169.691 337.92 261.851 506.149 261.851 169.691 0 506.149-92.16 506.149-261.851zM506.149 960c-140.434 0-253.074-112.64-253.074-253.074s112.64-253.074 253.074-253.074c140.434 0 253.074 112.64 253.074 253.074s-112.64 253.074-253.074 253.074z" />
<glyph unicode="&#xe91c;" glyph-name="question" horiz-adv-x="904" d="M100.593 960c-56.019 0-100.593-43.972-100.593-97.581v-682.466c0-53.609 44.574-97.581 100.593-97.581h200.584l150.588-146.372 150.588 146.372h200.584c55.416 0 100.593 43.972 100.593 97.581v682.466c0 53.609-45.176 97.581-100.593 97.581zM401.769 179.953v97.581h99.991v-97.581zM560.791 513.054c-36.141-35.539-59.031-65.054-59.031-137.939h-99.991v24.094c0 53.609 22.287 102.4 58.428 137.939l62.645 61.44c18.071 17.468 29.515 42.165 29.515 68.668 0 53.609-45.176 97.581-100.593 97.581s-100.593-43.972-100.593-97.581h-99.991c0 107.821 89.751 195.162 200.584 195.162s200.584-87.341 200.584-195.162c0-42.767-18.071-81.92-46.381-109.628z" />
<glyph unicode="&#xe91d;" glyph-name="folder" horiz-adv-x="1243" d="M621.714 828.343l-124.343 131.657h-373.029c-65.829 0-124.343-58.514-124.343-131.657v-768c0-73.143 58.514-131.657 124.343-131.657h994.743c65.829 0 124.343 58.514 124.343 131.657v643.657c0 73.143-58.514 131.657-124.343 131.657h-497.371zM124.343 60.343v643.657h994.743v-643.657h-994.743z" />
<glyph unicode="&#xe91e;" glyph-name="optimize" horiz-adv-x="1223" d="M175.761 448h-175.761l229.254-221.612 7.642-7.642 236.896 229.254h-175.761c0 221.612 183.403 397.373 405.015 397.373 0 0 0 0 0 0 221.612 0 405.015-175.761 405.015-397.373 0 0 0 0 0 0 0-221.612-183.403-405.015-405.015-397.373 0 0 0 0 0 0-114.627 0-213.97 45.851-290.388 114.627l-84.060-84.060c99.343-99.343 229.254-152.836 366.806-152.836 282.746 0 519.642 229.254 527.284 512 0 282.746-236.896 512-519.642 512 0 0 0 0 0 0-290.388 7.642-527.284-221.612-527.284-504.358zM641.91 677.254h84.060v-244.537l206.328-114.627-38.209-68.776-252.179 145.194v282.746z" />
<glyph unicode="&#xe91f;" glyph-name="plus-outline" d="M460.8 704v-204.8h-204.8v-102.4h204.8v-204.8h102.4v204.8h204.8v102.4h-204.8v204.8h-102.4zM512 960c281.6 0 512-230.4 512-512s-230.4-512-512-512v0c-281.6 0-512 230.4-512 512s230.4 512 512 512zM512 38.4c230.4 0 409.6 179.2 409.6 409.6s-179.2 409.6-409.6 409.6v0c-230.4 0-409.6-179.2-409.6-409.6s179.2-409.6 409.6-409.6z" />
</font>
</defs>
</svg>
