<svg xmlns="http://www.w3.org/2000/svg" width="31" height="39" viewBox="0 0 31 39"><g fill="none" fill-rule="evenodd" stroke="#75FED0"><rect width="24.474" height="34.263" x="3.263" y="4.079" rx="3.73"/><path d="M11.503 4.079a4.079 4.079 0 0 1 7.994 0M3.263 30h24.474M15 28.553v4.894M3.263 12h24.474m-19.579-.579h2.447v1.632H8.158zm12.237 0h2.447v1.632h-2.447zm7.342-3.263h.604A2.66 2.66 0 0 1 31 10.818v20.786a2.66 2.66 0 0 1-2.66 2.66h-.603M3.263 8.158H2.66A2.66 2.66 0 0 0 0 10.818v20.786a2.66 2.66 0 0 0 2.66 2.66h.603"/></g></svg>