<svg xmlns="http://www.w3.org/2000/svg" width="87" height="80" viewBox="0 0 87 80"><g fill="#FFF" fill-rule="evenodd"><path d="M79.75 68.84H7.25C3.252 68.84 0 65.59 0 61.595V7.246C0 3.25 3.252 0 7.25 0h72.5C83.748 0 87 3.25 87 7.246v54.348c0 3.997-3.252 7.247-7.25 7.247zM7.25 3.624c-2 0-3.625 1.625-3.625 3.623v54.348a3.628 3.628 0 0 0 3.625 3.623h72.5c2 0 3.625-1.625 3.625-3.623V7.246a3.628 3.628 0 0 0-3.625-3.623H7.25zM68.875 79.71h-50.75a1.813 1.813 0 0 1 0-3.623h50.75a1.813 1.813 0 0 1 0 3.623z"/><path d="M56.224 79.71H30.812a1.815 1.815 0 0 1-1.72-2.386l3.625-10.87a1.813 1.813 0 0 1 1.72-1.237h18.126c.78 0 1.471.499 1.72 1.24l3.516 10.545a1.813 1.813 0 0 1-1.575 2.708zm-22.898-3.623h20.348l-2.416-7.246H35.743l-2.418 7.246zM79.75 54.348H7.25V7.246h72.5v47.102zm-68.875-3.623h65.25V10.87h-65.25v39.855z"/><ellipse cx="43.5" cy="59.783" rx="3.625" ry="3.623"/></g></svg>