<svg xmlns="http://www.w3.org/2000/svg" width="67" height="78" viewBox="0 0 67 78"><g fill="#FFF" fill-rule="evenodd"><path d="M61.975 77.667H5.025c-.925 0-1.675-.722-1.675-1.611v-9.667c0-.89.75-1.611 1.675-1.611h56.95c.925 0 1.675.722 1.675 1.61v9.668c0 .889-.75 1.61-1.675 1.61zM6.7 74.444h53.6V68H6.7v6.444z"/><path d="M61.975 68H5.025C2.255 68 0 65.831 0 63.167V10C0 4.669 4.507.333 10.05.333h46.9C62.493.333 67 4.67 67 10v53.167C67 65.83 64.745 68 61.975 68zM10.05 3.556c-3.695 0-6.7 2.89-6.7 6.444v53.167c0 .887.752 1.61 1.675 1.61h56.95c.923 0 1.675-.723 1.675-1.61V10c0-3.554-3.005-6.444-6.7-6.444h-46.9z"/><path d="M54.76 48.667H12.24c-3.054 0-5.54-2.037-5.54-4.54v-32.81c0-2.503 2.486-4.54 5.54-4.54h42.52c3.054 0 5.54 2.037 5.54 4.54v32.808c0 2.505-2.486 4.542-5.54 4.542zM12.24 10c-1.29 0-2.19.694-2.19 1.318v32.807c0 .625.9 1.32 2.19 1.32h42.52c1.29 0 2.19-.695 2.19-1.318v-32.81c0-.623-.9-1.317-2.19-1.317H12.24zm4.51 48.333h-6.7c-.925 0-1.675-.721-1.675-1.61 0-.89.75-1.612 1.675-1.612h6.7c.925 0 1.675.722 1.675 1.611 0 .89-.75 1.611-1.675 1.611zm40.2 0H40.2c-.925 0-1.675-.721-1.675-1.61 0-.89.75-1.612 1.675-1.612h16.75c.925 0 1.675.722 1.675 1.611 0 .89-.75 1.611-1.675 1.611z"/><path d="M21.775 26.111c-.925 0-1.675-.722-1.675-1.611v-6.444c0-.89.75-1.612 1.675-1.612s1.675.722 1.675 1.612V24.5c0 .89-.75 1.611-1.675 1.611zm23.45 0c-.925 0-1.675-.722-1.675-1.611v-6.444c0-.89.75-1.612 1.675-1.612s1.675.722 1.675 1.612V24.5c0 .89-.75 1.611-1.675 1.611zm-10.05 6.445h-3.35c-.925 0-1.675-.722-1.675-1.612 0-.889.75-1.61 1.675-1.61H33.5v-8.056c0-.89.75-1.611 1.675-1.611s1.675.721 1.675 1.61v9.667c0 .89-.75 1.612-1.675 1.612zm3.35 9.666h-10.05c-2.77 0-5.025-2.168-5.025-4.833 0-.89.75-1.611 1.675-1.611s1.675.722 1.675 1.61c0 .889.752 1.612 1.675 1.612h10.05c.923 0 1.675-.723 1.675-1.611 0-.89.75-1.611 1.675-1.611s1.675.722 1.675 1.61c0 2.666-2.255 4.834-5.025 4.834z"/></g></svg>