<svg xmlns="http://www.w3.org/2000/svg" width="31" height="30" viewBox="0 0 31 30"><path d="M15.5 3.571c-7.088-7.185-15.5 0-15.5 0v23.572s8.412-7.186 15.5 0m0 0c7.088-7.186 15.5 0 15.5 0V3.57s-8.412-7.185-15.5 0v23.572zM0 30s8.412-7.186 15.5 0M31 30s-8.412-7.186-15.5 0M2.818 7.593s5.355-4.572 9.864 0M2.818 14.1s5.355-4.571 9.864 0m-9.864 7.143s5.355-4.572 9.864 0m5.636-13.65s5.355-4.572 9.864 0M18.318 14.1s5.355-4.571 9.864 0m-9.864 7.143s5.355-4.572 9.864 0" fill="none" stroke="#75FED0"/></svg>