<svg xmlns="http://www.w3.org/2000/svg" width="27" height="39" viewBox="0 0 27 39"><g fill="none" fill-rule="evenodd" stroke="#75FED0"><rect width="16.031" height="3.391" x="5.063" rx="1.696"/><path d="M17.682 13.93c5.493 2.408 9.432 9.054 8.207 14.949-1.224 5.895-6.396 10.12-12.389 10.12-5.993 0-11.165-4.225-12.39-10.12-1.224-5.895 1.694-12.52 7.187-14.928M8 14.413V3.391m10 11.022V3.391"/><path d="M.844 26.283l5.982-4.01a3.504 3.504 0 0 1 3.375-.289l4.674 2.086c.741.33 1.573.393 2.354.178l8.084-2.205"/><ellipse cx="8.438" cy="28.826" rx="1.688" ry="1.696"/><ellipse cx="19.406" cy="28.826" rx="1" ry="1"/><ellipse cx="13.5" cy="16.957" rx="2.531" ry="2.543"/></g></svg>