<svg xmlns="http://www.w3.org/2000/svg" xmlns:xlink="http://www.w3.org/1999/xlink" viewBox="0 0 1440 900"><defs><radialGradient id="b" cx="49.349%" cy="106.657%" r="112.207%" fx="49.349%" fy="106.657%" gradientTransform="matrix(0 -1 .625 0 -.173 1.56)"><stop offset="0%" stop-color="#1E263B"/><stop offset="100%" stop-color="#181F30"/></radialGradient><path id="a" d="M0 0h1440v900H0z"/><linearGradient id="d" x1="50%" x2="50%" y1="0%" y2="100%"><stop offset="0%" stop-color="#1C98EE"/><stop offset="100%" stop-color="#20C0CF" stop-opacity="0"/></linearGradient><linearGradient id="g" x1="1.15%" x2="97.781%" y1="104.207%" y2="104.207%"><stop offset="0%" stop-color="#1A82FF" stop-opacity="0"/><stop offset="12.778%" stop-color="#1B8BF8"/><stop offset="88.17%" stop-color="#23DFB8"/><stop offset="100%" stop-color="#24ECAD" stop-opacity="0"/></linearGradient><path id="f" d="M113 252.925c122.729-2.163 118.444-173.763 168.088-174.067 49.643-.303 40.287 160.029 98.974 158.882 58.687-1.147 51.84-144.777 101.264-143.93 43.088.739 34.07 80.883 99.534 81.36C679.637 175.886 675.367.786 729.358.408c57.67-.404 52.678 142.318 102.359 142.139 49.681-.18 51.483-100.449 98.103-102.396 46.62-1.947 52.691 142.454 103.144 142.479 50.453.025 47.378-95.251 98.633-94.43 51.254.823 46.449 139.049 99.211 138.57 52.762-.48 49.81-138.372 100.757-138.384 50.947-.011 49.465 113.125 99.601 112.994 50.136-.131 91.378-111.087 154.978-107.414"/><filter id="e" width="109.5%" height="155.4%" x="-4.8%" y="-27.7%" filterUnits="objectBoundingBox"><feMorphology in="SourceAlpha" operator="dilate" radius="1" result="shadowSpreadOuter1"/><feOffset in="shadowSpreadOuter1" result="shadowOffsetOuter1"/><feMorphology in="SourceAlpha" radius="1" result="shadowInner"/><feOffset in="shadowInner" result="shadowInner"/><feComposite in="shadowOffsetOuter1" in2="shadowInner" operator="out" result="shadowOffsetOuter1"/><feGaussianBlur in="shadowOffsetOuter1" result="shadowBlurOuter1" stdDeviation="23"/><feColorMatrix in="shadowBlurOuter1" values="0 0 0 0 0.929528061 0 0 0 0 0.340760938 0 0 0 0 0.872087366 0 0 0 0.56139606 0"/></filter><linearGradient id="h" x1="50%" x2="50%" y1=".508%" y2="97.957%"><stop offset="0%" stop-color="#169EF5"/><stop offset="100%" stop-color="#1C7CEE"/></linearGradient><linearGradient id="k" x1="50%" x2="50%" y1=".508%" y2="97.957%"><stop offset="0%" stop-color="#2FF6EE"/><stop offset="100%" stop-color="#22CDC6"/></linearGradient><circle id="j" cx="754.5" cy="184.5" r="3.5"/><filter id="i" width="628.6%" height="628.6%" x="-264.3%" y="-264.3%" filterUnits="objectBoundingBox"><feMorphology in="SourceAlpha" operator="dilate" radius=".5" result="shadowSpreadOuter1"/><feOffset in="shadowSpreadOuter1" result="shadowOffsetOuter1"/><feGaussianBlur in="shadowOffsetOuter1" result="shadowBlurOuter1" stdDeviation="6"/><feComposite in="shadowBlurOuter1" in2="SourceAlpha" operator="out" result="shadowBlurOuter1"/><feColorMatrix in="shadowBlurOuter1" values="0 0 0 0 0.133333333 0 0 0 0 0.803921569 0 0 0 0 0.776470588 0 0 0 0.37 0"/></filter><circle id="m" cx="854.5" cy="90.5" r="3.5"/><filter id="l" width="628.6%" height="628.6%" x="-264.3%" y="-264.3%" filterUnits="objectBoundingBox"><feMorphology in="SourceAlpha" operator="dilate" radius=".5" result="shadowSpreadOuter1"/><feOffset in="shadowSpreadOuter1" result="shadowOffsetOuter1"/><feGaussianBlur in="shadowOffsetOuter1" result="shadowBlurOuter1" stdDeviation="6"/><feComposite in="shadowBlurOuter1" in2="SourceAlpha" operator="out" result="shadowBlurOuter1"/><feColorMatrix in="shadowBlurOuter1" values="0 0 0 0 0.133333333 0 0 0 0 0.803921569 0 0 0 0 0.776470588 0 0 0 0.37 0"/></filter><circle id="o" cx="954.5" cy="229.5" r="3.5"/><filter id="n" width="628.6%" height="628.6%" x="-264.3%" y="-264.3%" filterUnits="objectBoundingBox"><feMorphology in="SourceAlpha" operator="dilate" radius=".5" result="shadowSpreadOuter1"/><feOffset in="shadowSpreadOuter1" result="shadowOffsetOuter1"/><feGaussianBlur in="shadowOffsetOuter1" result="shadowBlurOuter1" stdDeviation="6"/><feComposite in="shadowBlurOuter1" in2="SourceAlpha" operator="out" result="shadowBlurOuter1"/><feColorMatrix in="shadowBlurOuter1" values="0 0 0 0 0.133333333 0 0 0 0 0.803921569 0 0 0 0 0.776470588 0 0 0 0.37 0"/></filter><circle id="q" cx="1054.5" cy="91.5" r="3.5"/><filter id="p" width="628.6%" height="628.6%" x="-264.3%" y="-264.3%" filterUnits="objectBoundingBox"><feMorphology in="SourceAlpha" operator="dilate" radius=".5" result="shadowSpreadOuter1"/><feOffset in="shadowSpreadOuter1" result="shadowOffsetOuter1"/><feGaussianBlur in="shadowOffsetOuter1" result="shadowBlurOuter1" stdDeviation="6"/><feComposite in="shadowBlurOuter1" in2="SourceAlpha" operator="out" result="shadowBlurOuter1"/><feColorMatrix in="shadowBlurOuter1" values="0 0 0 0 0.133333333 0 0 0 0 0.803921569 0 0 0 0 0.776470588 0 0 0 0.37 0"/></filter><circle id="s" cx="1153.5" cy="204.5" r="3.5"/><filter id="r" width="628.6%" height="628.6%" x="-264.3%" y="-264.3%" filterUnits="objectBoundingBox"><feMorphology in="SourceAlpha" operator="dilate" radius=".5" result="shadowSpreadOuter1"/><feOffset in="shadowSpreadOuter1" result="shadowOffsetOuter1"/><feGaussianBlur in="shadowOffsetOuter1" result="shadowBlurOuter1" stdDeviation="6"/><feComposite in="shadowBlurOuter1" in2="SourceAlpha" operator="out" result="shadowBlurOuter1"/><feColorMatrix in="shadowBlurOuter1" values="0 0 0 0 0.133333333 0 0 0 0 0.803921569 0 0 0 0 0.776470588 0 0 0 0.37 0"/></filter><circle id="u" cx="1030" cy="848" r="3"/><filter id="t" width="700%" height="700%" x="-300%" y="-300%" filterUnits="objectBoundingBox"><feOffset in="SourceAlpha" result="shadowOffsetOuter1"/><feGaussianBlur in="shadowOffsetOuter1" result="shadowBlurOuter1" stdDeviation="6"/><feColorMatrix in="shadowBlurOuter1" values="0 0 0 0 0.133333333 0 0 0 0 0.803921569 0 0 0 0 0.776470588 0 0 0 0.37 0"/></filter><circle id="w" cx="1017" cy="693" r="3"/><filter id="v" width="700%" height="700%" x="-300%" y="-300%" filterUnits="objectBoundingBox"><feOffset in="SourceAlpha" result="shadowOffsetOuter1"/><feGaussianBlur in="shadowOffsetOuter1" result="shadowBlurOuter1" stdDeviation="6"/><feColorMatrix in="shadowBlurOuter1" values="0 0 0 0 0.133333333 0 0 0 0 0.803921569 0 0 0 0 0.776470588 0 0 0 0.37 0"/></filter><circle id="y" cx="179" cy="174" r="3"/><filter id="x" width="700%" height="700%" x="-300%" y="-300%" filterUnits="objectBoundingBox"><feOffset in="SourceAlpha" result="shadowOffsetOuter1"/><feGaussianBlur in="shadowOffsetOuter1" result="shadowBlurOuter1" stdDeviation="6"/><feColorMatrix in="shadowBlurOuter1" values="0 0 0 0 0.133333333 0 0 0 0 0.803921569 0 0 0 0 0.776470588 0 0 0 0.37 0"/></filter><circle id="A" cx="791" cy="512" r="3"/><filter id="z" width="700%" height="700%" x="-300%" y="-300%" filterUnits="objectBoundingBox"><feOffset in="SourceAlpha" result="shadowOffsetOuter1"/><feGaussianBlur in="shadowOffsetOuter1" result="shadowBlurOuter1" stdDeviation="6"/><feColorMatrix in="shadowBlurOuter1" values="0 0 0 0 0.133333333 0 0 0 0 0.803921569 0 0 0 0 0.776470588 0 0 0 0.37 0"/></filter><circle id="C" cx="844" cy="856" r="3"/><filter id="B" width="700%" height="700%" x="-300%" y="-300%" filterUnits="objectBoundingBox"><feOffset in="SourceAlpha" result="shadowOffsetOuter1"/><feGaussianBlur in="shadowOffsetOuter1" result="shadowBlurOuter1" stdDeviation="6"/><feColorMatrix in="shadowBlurOuter1" values="0 0 0 0 0.133333333 0 0 0 0 0.803921569 0 0 0 0 0.776470588 0 0 0 0.37 0"/></filter><circle id="E" cx="1225" cy="644" r="3"/><filter id="D" width="700%" height="700%" x="-300%" y="-300%" filterUnits="objectBoundingBox"><feOffset in="SourceAlpha" result="shadowOffsetOuter1"/><feGaussianBlur in="shadowOffsetOuter1" result="shadowBlurOuter1" stdDeviation="6"/><feColorMatrix in="shadowBlurOuter1" values="0 0 0 0 0.133333333 0 0 0 0 0.803921569 0 0 0 0 0.776470588 0 0 0 0.37 0"/></filter></defs><g fill="none" fill-rule="evenodd"><mask id="c" fill="#fff"><use xlink:href="#a"/></mask><use fill="url(#b)" xlink:href="#a"/><g mask="url(#c)"><path fill="url(#d)" d="M113 252.925c122.729-2.163 118.444-173.763 168.088-174.067 49.643-.303 51.104 158.663 98.974 158.882 47.87.22 51.596-143.85 101.264-143.93 49.67-.08 34.07 80.883 99.534 81.36C679.637 175.886 675.367.786 729.358.408c57.67-.404 52.678 142.318 102.359 142.139 49.681-.18 51.483-100.449 98.103-102.396 46.62-1.947 52.691 142.454 103.144 142.479 50.453.025 47.378-95.251 98.633-94.43 51.254.823 46.449 139.049 99.211 138.57 52.762-.48 49.81-138.372 100.757-138.384 50.947-.011 49.465 113.125 99.601 112.994 50.136-.131 91.378-111.087 154.978-107.414 63.6 3.674 57.502 243.16 57.502 243.16H.326v-89.605" opacity=".05" transform="translate(-111 562)"/><g transform="translate(-111 562)"><use fill="#000" filter="url(#e)" xlink:href="#f"/><use stroke="url(#g)" stroke-width="2" xlink:href="#f"/></g><g transform="translate(165 559)"><circle cx="3.5" cy="82.5" r="3.5" fill="#1982FF" stroke="url(#h)" stroke-width="1.5"/><circle cx="103.5" cy="240.5" r="3.5" fill="#1982FF" stroke="url(#h)" stroke-width="1.5"/><circle cx="203.5" cy="96.5" r="3.5" fill="#1982FF" stroke="url(#h)" stroke-width="1.5"/><circle cx="303.5" cy="177.5" r="3.5" fill="#1982FF" stroke="url(#h)" stroke-width="1.5"/><circle cx="453.5" cy="3.5" r="3.5" fill="#1982FF" stroke="url(#h)" stroke-width="1.5"/><circle cx="554.5" cy="145.5" r="3.5" fill="#1982FF" stroke="url(#h)" stroke-width="1.5"/><circle cx="655" cy="44" r="7" fill="#1982FF" stroke="url(#h)" stroke-width="1.5"/><use fill="#000" filter="url(#i)" xlink:href="#j"/><use fill="#22CDC6" stroke="url(#k)" xlink:href="#j"/><use fill="#000" filter="url(#l)" xlink:href="#m"/><use fill="#22CDC6" stroke="url(#k)" xlink:href="#m"/><use fill="#000" filter="url(#n)" xlink:href="#o"/><use fill="#22CDC6" stroke="url(#k)" xlink:href="#o"/><use fill="#000" filter="url(#p)" xlink:href="#q"/><use fill="#23DAB8" stroke="url(#k)" xlink:href="#q"/><use fill="#000" filter="url(#r)" xlink:href="#s"/><use fill="#23DAB8" stroke="url(#k)" xlink:href="#s"/></g><g transform="rotate(144 648.552 418.093)"><circle cx="164" cy="3" r="3" fill="#1982FF" stroke="url(#h)" stroke-width="1.5"/><circle cx="392" cy="228" r="3" fill="#1982FF" stroke="url(#h)" stroke-width="1.5"/><circle cx="3" cy="46" r="3" fill="#1982FF" stroke="url(#h)" stroke-width="1.5"/><circle cx="44" cy="299" r="3" fill="#1982FF" stroke="url(#h)" stroke-width="1.5"/><circle cx="347" cy="31" r="3" fill="#1982FF" stroke="url(#h)" stroke-width="1.5"/><circle cx="615" cy="277" r="3" fill="#1982FF" stroke="url(#h)" stroke-width="1.5"/><path fill="#1982FF" stroke="url(#h)" stroke-width="1.5" d="M973 542a3 3 0 1 0 0-6 3 3 0 0 0 0 6z"/><use fill="#000" filter="url(#t)" xlink:href="#u"/><use fill="#22CDC6" xlink:href="#u"/><use fill="#000" filter="url(#v)" xlink:href="#w"/><use fill="#22CDC6" xlink:href="#w"/><use fill="#000" filter="url(#x)" xlink:href="#y"/><use fill="#22CDC6" xlink:href="#y"/><use fill="#000" filter="url(#z)" xlink:href="#A"/><use fill="#22CDC6" xlink:href="#A"/><use fill="#000" filter="url(#B)" xlink:href="#C"/><use fill="#22CDC6" xlink:href="#C"/><use fill="#000" filter="url(#D)" xlink:href="#E"/><use fill="#23DAB8" xlink:href="#E"/></g></g></g></svg>