<svg xmlns="http://www.w3.org/2000/svg" viewBox="0 0 35 42"><g fill="none" fill-rule="evenodd" opacity=".9"><path stroke="#FFF" stroke-width="4" d="M31.447 36.79c0 1.763-1.481 3.187-3.3 3.187H6.739c-1.825 0-3.299-1.43-3.299-3.186V18.84"/><path fill="#FFF" d="M30.956 30.222v-4.474h-7.729V24.8h7.729v-5.958h.982v14.14h-.982v-1.81h-7.799v-.949h7.799zm-18.048-.352v-4.122H3.643V24.8h9.265v-6.1h.983v21.08h-.983v-8.96H3.797v-.95h9.111zm8.283 9.91h-.982V18.698h.982V39.78zM12.98 18.224h-.983v-4.949h.983v4.949zm9.125 0h-.983v-4.949h.983v4.949z"/><path stroke="#FFF" stroke-width="4" d="M6.731 18.366h-4.71v-5.321h30.844v5.321H10.297m7.483-5.719l-9.245.398c-3.467 0-3.671-6.155.885-6.155 4.235 0 7.87 4.974 8.36 5.674.49-.7 4.125-5.674 8.36-5.674 4.556 0 4.352 6.155.885 6.155l-9.245-.398z"/><path fill="#7DC855" d="M15.205 4.407l-.644.717-2.94-2.46.643-.718 2.94 2.46zm6.394.717l-.642-.718 2.948-2.46.643.718-2.949 2.46zM18.54 3.491h-.982V0h.982v3.491z"/></g></svg>