<svg xmlns="http://www.w3.org/2000/svg" width="28" height="39" viewBox="0 0 28 39"><g fill="none" fill-rule="evenodd" stroke="#75FED0"><path d="M1.688 14.413h19.026a1.229 1.229 0 0 1 1.223 1.23v19.966A3.383 3.383 0 0 1 18.563 39H3.84a3.003 3.003 0 0 1-2.995-3.01V15.26c0-.467.378-.847.844-.847z"/><path d="M21.938 28.826h2.995c.928 0 2.067-.763 2.067-1.696V19.5c0-.933-1.14-1.696-2.067-1.696h-2.995M6.75 14.413V0h6.75v14.413M6.75 2h2.531M6.75 5h1.688M6.75 9h2.531M6.75 12h1.688m5.307 2.413L16.03 4.002l1.646.364 1.636.365-2.117 9.682"/><path d="M16.023 4.002l.548-2.484 3.3.729-.55 2.484M5.915 14.413L3.67 4.816l-3.282.771 2.05 8.826"/><path d="M.388 5.587L.456 0 3.67 4.807"/></g></svg>