<svg xmlns="http://www.w3.org/2000/svg" width="18" height="14" viewBox="0 0 18 14"><path fill="#3C3D41" fill-rule="evenodd" d="M7.825 9.616c0 1.139-.384 2.09-1.15 2.856-.768.765-1.674 1.148-2.72 1.148-1.046 0-1.961-.383-2.746-1.148C.425 11.707.033 10.79.033 9.722c0-1.067.47-2.366 1.412-3.897L4.582.54h3.034L5.68 6.092c1.43.677 2.144 1.851 2.144 3.524zm9.248 0c0 1.139-.384 2.09-1.15 2.856-.768.765-1.674 1.148-2.72 1.148-1.046 0-1.961-.383-2.746-1.148-.784-.765-1.177-1.682-1.177-2.75 0-1.067.471-2.366 1.412-3.897L13.83.54h3.033l-1.935 5.552c1.43.677 2.145 1.851 2.145 3.524z" opacity=".2"/></svg>