<svg xmlns="http://www.w3.org/2000/svg" width="20" height="15" viewBox="0 0 20 15"><path fill="#FFF" fill-rule="evenodd" d="M7.935 10.439V4.846l5.403 2.806-5.403 2.787zM19.8 3.877s-.196-1.371-.795-1.975c-.76-.794-1.613-.797-2.004-.843-2.799-.202-6.997-.202-6.997-.202h-.008s-4.199 0-6.997.202c-.391.046-1.243.05-2.005.843C.395 2.506.2 3.877.2 3.877S0 5.488 0 7.1v1.51c0 1.61.2 3.221.2 3.221s.195 1.372.794 1.976c.762.793 1.761.768 2.206.85 1.6.154 6.8.201 6.8.201s4.203-.006 7.001-.208c.39-.046 1.243-.05 2.004-.843.6-.604.795-1.976.795-1.976s.2-1.61.2-3.221V7.1c0-1.61-.2-3.222-.2-3.222z"/></svg>